<svg id="Layer_1" data-name="Layer 1" xmlns="http://www.w3.org/2000/svg" xmlns:xlink="http://www.w3.org/1999/xlink" viewBox="0 0 354 321"><defs><style>.cls-1,.cls-9{fill:none;}.cls-2,.cls-7{fill:#9c1d22;}.cls-3{fill:#fbd2d3;}.cls-4{font-size:33.71px;font-family:RobotoSlab-Medium, Roboto Slab;font-weight:500;}.cls-4,.cls-5,.cls-6{fill:#fff;}.cls-5,.cls-6,.cls-7{font-size:28.09px;}.cls-5{font-family:Roboto-Regular, Roboto;}.cls-6,.cls-7{font-family:Roboto-Light, Roboto;font-weight:300;}.cls-8{clip-path:url(#clip-path);}.cls-9{stroke:#fff;stroke-width:0.5px;}</style><clipPath id="clip-path"><rect class="cls-1" y="-9.99" width="354" height="321.01"/></clipPath></defs><title>calendario</title><rect class="cls-2" width="354" height="321" rx="28.79"/><rect class="cls-3" x="25" y="234" width="171" height="33" rx="12"/><text class="cls-4" transform="translate(121.46 48.09)">Agosto</text><text class="cls-5" transform="translate(35.46 97.01)">D</text><text class="cls-6" transform="translate(36.9 178.46)">8</text><text class="cls-6" transform="translate(29.11 219.17)">15</text><text class="cls-7" transform="translate(29.11 259.87)">22</text><g class="cls-8"><text class="cls-6" transform="translate(29.11 300.6)">29</text></g><text class="cls-5" transform="translate(80.28 97.01)">L</text><text class="cls-6" transform="translate(80.06 178.46)">9</text><text class="cls-6" transform="translate(72.27 219.17)">16</text><text class="cls-7" transform="translate(72.27 259.87)">23</text><g class="cls-8"><text class="cls-6" transform="translate(72.27 300.6)">30</text></g><text class="cls-5" transform="translate(118.74 97.01)">M</text><text class="cls-6" transform="translate(123.21 178.46)">10</text><text class="cls-6" transform="translate(115.42 219.17)">17</text><text class="cls-7" transform="translate(115.42 259.87)">24</text><g class="cls-8"><text class="cls-6" transform="translate(115.43 300.6)">31</text></g><text class="cls-5" transform="translate(161.9 97.01)">M</text><text class="cls-6" transform="translate(166.37 178.46)">11</text><text class="cls-6" transform="translate(158.59 219.17)">18</text><text class="cls-7" transform="translate(158.59 259.87)">25</text><text class="cls-6" transform="translate(209.55 137.73)">5</text><text class="cls-5" transform="translate(209.57 97.02)">J</text><text class="cls-6" transform="translate(209.55 178.46)">12</text><text class="cls-6" transform="translate(201.76 219.17)">19</text><text class="cls-6" transform="translate(201.76 259.88)">26</text><text class="cls-6" transform="translate(252.71 137.73)">6</text><text class="cls-5" transform="translate(251.56 97.02)">V</text><text class="cls-6" transform="translate(252.71 178.46)">13</text><text class="cls-6" transform="translate(244.93 219.17)">20</text><text class="cls-6" transform="translate(244.93 259.88)">27</text><text class="cls-6" transform="translate(295.87 137.73)">7</text><text class="cls-5" transform="translate(295.31 97.02)">S</text><text class="cls-6" transform="translate(288.06 178.46)">14</text><text class="cls-6" transform="translate(36.9 137.46)">1</text><text class="cls-6" transform="translate(80.06 137.46)">2</text><text class="cls-6" transform="translate(123.21 137.46)">3</text><text class="cls-6" transform="translate(166.37 137.46)">4</text><text class="cls-6" transform="translate(288.06 219.17)">21</text><text class="cls-6" transform="translate(288.06 259.88)">28</text><line class="cls-9" x1="25.29" y1="105.04" x2="323.05" y2="105.04"/></svg>